<svg id="b322bd20-6b14-41fa-8589-766e441f80d9" fill="#000000" data-name="图层 1" xmlns="http://www.w3.org/2000/svg"
  viewBox="0 0 447 431.6">
  <path d="M319.42,65" transform="translate(-36 -47.78)" />
  <path d="M195,121V65s58-38.8,129,0v56" transform="translate(-36 -47.78)" />
  <path d="M99.72,138.39" transform="translate(-36 -47.78)" />
  <path d="M99.72,138.39" transform="translate(-36 -47.78)" />
  <path
    d="M99.72,138.39s7.87-24.45,159-17.71c0,0,164.4-5.9,167.26,17.71,0,0,14.26,18.56-166.44,20.24C259.5,158.63,124.45,161.16,99.72,138.39Z"
    transform="translate(-36 -47.78)" />
  <path d="M90.21,234.54" transform="translate(-36 -47.78)" />
  <polygon points="54.21 186.76 136.95 125.19 164.53 174.11 129.34 162.3 54.21 186.76" />
  <polygon points="0 258.44 37.09 281.22 237.77 141.22 232.06 120.98 255.84 137.84 38.04 320.85 0 258.44" />
  <path d="M199.58,65" transform="translate(-36 -47.78)" />
  <path d="M324,121V65s-58-38.8-129,0v56" transform="translate(-36 -47.78)" />
  <path d="M419.28,138.39" transform="translate(-36 -47.78)" />
  <path d="M419.28,138.39" transform="translate(-36 -47.78)" />
  <path
    d="M419.28,138.39s-7.87-24.45-159-17.71c0,0-164.4-5.9-167.26,17.71,0,0-14.26,18.56,166.44,20.24C259.5,158.63,394.55,161.16,419.28,138.39Z"
    transform="translate(-36 -47.78)" />
  <path d="M428.79,234.54" transform="translate(-36 -47.78)" />
  <polygon points="392.79 186.76 310.05 125.19 282.47 174.11 317.66 162.3 392.79 186.76" />
  <polygon points="447 258.44 409.91 281.22 209.23 141.22 214.94 120.98 191.16 137.84 408.96 320.85 447 258.44" />
  <polyline
    points="221.03 431.6 276.27 320.22 238.54 265.36 256.02 221.22 221 221.22 222 221.22 187.24 221.22 204.73 265.36 167 320.22 222.1 431.6" />
</svg>
