<svg width="88.000000" height="88.000000" viewBox="0 0 88 88" fill="none" xmlns="http://www.w3.org/2000/svg" xmlns:xlink="http://www.w3.org/1999/xlink">
	<desc>
			Created with Pixso.
	</desc>
	<path d="M44 12C26.3269 12 12 26.3269 12 44L18 44C18 36.8203 20.5384 30.692 25.6152 25.6152C30.692 20.5384 36.8203 18 44 18C51.1797 18 57.308 20.5384 62.3848 25.6152C67.4616 30.692 70 36.8203 70 44L76 44C76 26.3269 61.6731 12 44 12Z" fill-rule="evenodd" fill="#000000"/>
	<path d="M44 76C26.3269 76 12 61.6731 12 44L18 44C18 51.1797 20.5384 57.308 25.6152 62.3848C30.692 67.4616 36.8203 70 44 70C51.1797 70 57.308 67.4616 62.3848 62.3848C67.4616 57.308 70 51.1797 70 44L76 44C76 61.6731 61.6731 76 44 76Z" fill-rule="evenodd" fill="#000000"/>
	<path d="M26 41L62 41L62 47L26 47L26 41Z" fill-rule="evenodd" fill="#000000"/>
	<path d="M41 62L41 26L47 26L47 62L41 62Z" fill-rule="evenodd" fill="#000000"/>
	<defs/>
</svg>
