<svg width="88.000000" height="88.000000" viewBox="0 0 88 88" fill="none" xmlns="http://www.w3.org/2000/svg" xmlns:xlink="http://www.w3.org/1999/xlink">
	<desc>
			Created with Pixso.
	</desc>
	<path d="M40.0469 46.1641L40.8203 43.1406C41.7227 39.5898 42.6836 35.418 43.5508 31.668L43.7383 31.668C44.6992 35.3242 45.6133 39.5898 46.5742 43.1406L47.3477 46.1641L40.0469 46.1641ZM51.0391 61L60.0625 61L48.9766 25.293L38.6992 25.293L27.6133 61L36.3555 61L38.418 52.7969L48.9766 52.7969L51.0391 61Z" fill-rule="evenodd" fill="#000000"/>
	<path d="M76 11L12 11L12 43L18 43L18 17L70 17L70 43L76 43L76 11Z" fill-rule="evenodd" fill="#000000"/>
	<path d="M76 75L12 75L12 43L18 43L18 69L70 69L70 43L76 43L76 75Z" fill-rule="evenodd" fill="#000000"/>
	<defs/>
</svg>
