<svg width="88.000000" height="88.000000" viewBox="0 0 88 88" fill="none" xmlns="http://www.w3.org/2000/svg" xmlns:xlink="http://www.w3.org/1999/xlink">
	<desc>
			Created with Pixso.
	</desc>
	<path d="M12 44C12 61.6571 26.3429 76 44 76C61.6571 76 76 61.6571 76 44L48.2426 44L47.7427 44.5L60.1558 56.9131L55.9132 61.1558L43.5 48.7426L31.0869 61.1558L26.8442 56.9131L39.2574 44.5L38.7574 44L12 44Z" fill-rule="evenodd" fill="#000000" fill-opacity="1.000000"/>
	<path d="M76 44C76 26.3429 61.6571 12 44 12C26.3429 12 12 26.3429 12 44L38.7574 44L26.8443 32.0869L31.0869 27.8442L43.5 40.2573L55.9131 27.8442L60.1558 32.0869L48.2426 44L76 44Z" clip-rule="evenodd" fill-rule="evenodd" fill="#000000" fill-opacity="1.000000"/>
	<defs/>
</svg>
