<svg width="88.000000" height="88.000000" viewBox="0 0 88 88" fill="none" xmlns="http://www.w3.org/2000/svg" xmlns:xlink="http://www.w3.org/1999/xlink">
	<desc>
			Created with Pixso.
	</desc>
	<path d="M5 42L11.3166 42C12.8407 38.3591 15.4698 35.045 19.2037 32.0578C22.3447 29.545 25.9745 27.5918 30.0931 26.1982C34.424 24.7327 38.9729 24 43.7398 24C48.5067 24 53.0556 24.7327 57.3865 26.1982C61.5051 27.5918 65.1349 29.545 68.2759 32.0578C72.0099 35.045 74.6389 38.359 76.163 42L82.4796 42C78.0392 28.1982 62.3782 18 43.7398 18C25.1014 18 9.44043 28.1982 5 42Z" fill-rule="evenodd" fill="#000000"/>
	<path d="M5.23975 41.5L11.5563 41.5C13.0804 45.141 15.7095 48.4551 19.4435 51.4422C22.5845 53.955 26.2143 55.9083 30.3329 57.3019C34.6638 58.7673 39.2126 59.5 43.9796 59.5C48.7465 59.5 53.2953 58.7673 57.6263 57.3019C61.7449 55.9082 65.3747 53.955 68.5157 51.4422C72.2496 48.4551 74.8787 45.141 76.4028 41.5L82.7194 41.5C78.2789 55.3019 62.618 65.5 43.9796 65.5C25.3412 65.5 9.68018 55.3019 5.23975 41.5Z" fill-rule="evenodd" fill="#000000"/>
	<path d="M43.2399 54.5C36.6124 54.5 31.2399 49.1275 31.2399 42.5L37.2399 42.5C37.2399 44.1569 37.8257 45.5711 38.9972 46.7427C40.1688 47.9143 41.583 48.5 43.2399 48.5C44.8967 48.5 46.3109 47.9143 47.4825 46.7427C48.6541 45.5711 49.2399 44.1569 49.2399 42.5L55.2399 42.5C55.2399 49.1275 49.8673 54.5 43.2399 54.5Z" fill-rule="evenodd" fill="#000000"/>
	<path d="M43.2399 30.5C36.6124 30.5 31.2399 35.8726 31.2399 42.5L37.2399 42.5C37.2399 40.8432 37.8257 39.429 38.9972 38.2574C40.1688 37.0858 41.583 36.5 43.2399 36.5C44.8967 36.5 46.3109 37.0858 47.4825 38.2574C48.6541 39.429 49.2399 40.8432 49.2399 42.5L55.2399 42.5C55.2399 35.8726 49.8673 30.5 43.2399 30.5Z" fill-rule="evenodd" fill="#000000"/>
	<path d="M66.5 9L58 20C59.8333 20.8333 63.6 22.5 64 22.5C64.4 22.5 69.1667 16.1667 71.5 13L66.5 9ZM54 25.5L49 32C49.8333 32.6667 51.9 34.4 53.5 36L60 27.5C59.1667 26.8333 56.8 25.5 54 25.5ZM38.5 45.5L45 37C47.8 37.4 48.8333 40.1667 49 41.5L43.5 48.5C39.9 48.5 38.6666 46.5 38.5 45.5Z" fill-rule="evenodd" fill="#090909"/>
	<path d="M34.5 50.5L29.5 57C31 57.6667 34.3 58.9 35.5 58.5L39.5 54C37.8334 53.1667 34.5 51.3 34.5 50.5ZM14 77L25.5 62C29.9 63.6 31.3333 63.6667 31.5 63.5L18.5 80.5L14 77Z" fill-rule="evenodd" fill="#000000"/>
	<defs/>
</svg>
