<svg width="88.000000" height="88.000000" viewBox="0 0 88 88" fill="none" xmlns="http://www.w3.org/2000/svg" xmlns:xlink="http://www.w3.org/1999/xlink">
	<desc>
			Created with Pixso.
	</desc>
	<path d="M5.26019 44L11.5768 44C13.1009 40.359 15.7299 37.045 19.4639 34.0578C22.6049 31.545 26.2347 29.5918 30.3533 28.1982C34.6842 26.7327 39.2331 26 44 26C48.7669 26 53.3158 26.7327 57.6467 28.1982C61.7653 29.5918 65.3951 31.545 68.5361 34.0578C72.2701 37.045 74.8991 40.359 76.4232 44L82.7398 44C78.2994 30.1982 62.6384 20 44 20C25.3616 20 9.70062 30.1982 5.26019 44Z" fill-rule="evenodd" fill="#000000"/>
	<path d="M5.5 43.5L11.8166 43.5C13.3407 47.141 15.9698 50.4551 19.7037 53.4422C22.8447 55.955 26.4745 57.9082 30.5931 59.3019C34.924 60.7673 39.4729 61.5 44.2398 61.5C49.0067 61.5 53.5556 60.7673 57.8865 59.3019C62.0051 57.9082 65.6349 55.955 68.7759 53.4422C72.5099 50.4551 75.1389 47.141 76.6631 43.5L82.9796 43.5C78.5392 57.3018 62.8782 67.5 44.2398 67.5C25.6014 67.5 9.94043 57.3018 5.5 43.5Z" fill-rule="evenodd" fill="#000000"/>
	<path d="M43.5 56.5C36.8726 56.5 31.5 51.1274 31.5 44.5L37.5 44.5C37.5 46.1569 38.0858 47.5711 39.2574 48.7427C40.4289 49.9142 41.8431 50.5 43.5 50.5C45.1569 50.5 46.5711 49.9142 47.7426 48.7427C48.9142 47.5711 49.5 46.1569 49.5 44.5L55.5 44.5C55.5 51.1274 50.1274 56.5 43.5 56.5Z" fill-rule="evenodd" fill="#000000"/>
	<path d="M43.5 32.5C36.8726 32.5 31.5 37.8726 31.5 44.5L37.5 44.5C37.5 42.8432 38.0858 41.429 39.2574 40.2574C40.4289 39.0858 41.8431 38.5 43.5 38.5C45.1569 38.5 46.5711 39.0858 47.7426 40.2574C48.9142 41.429 49.5 42.8432 49.5 44.5L55.5 44.5C55.5 37.8726 50.1274 32.5 43.5 32.5Z" fill-rule="evenodd" fill="#000000"/>
	<defs/>
</svg>
