<svg width="88.000000" height="88.000000" viewBox="0 0 88 88" fill="none" xmlns="http://www.w3.org/2000/svg" xmlns:xlink="http://www.w3.org/1999/xlink">
	<desc>
			Created with Pixso.
	</desc>
	<path d="M44 12.0001C26.3269 12.0001 12 26.327 12 44.0001L18 44.0001C18 36.8204 20.5384 30.6921 25.6152 25.6153C30.692 20.5385 36.8203 18.0001 44 18.0001C51.1797 18.0001 57.308 20.5385 62.3848 25.6153C67.4616 30.6921 70 36.8204 70 44.0001L76 44.0001C76 26.327 61.6731 12.0001 44 12.0001Z" fill-rule="evenodd" fill="#000000"/>
	<path d="M44 76.0001C26.3269 76.0001 12 61.6732 12 44.0001L18 44.0001C18 51.1798 20.5384 57.308 25.6152 62.3848C30.692 67.4617 36.8203 70.0001 44 70.0001C51.1797 70.0001 57.308 67.4617 62.3848 62.3848C67.4616 57.308 70 51.1798 70 44.0001L76 44.0001C76 61.6732 61.6731 76.0001 44 76.0001Z" fill-rule="evenodd" fill="#000000"/>
	<defs/>
</svg>
