<svg width="88.000000" height="88.000000" viewBox="0 0 88 88" fill="none" xmlns="http://www.w3.org/2000/svg" xmlns:xlink="http://www.w3.org/1999/xlink">
	<desc>
			Created with Pixso.
	</desc>
	<path d="M26.0707 11.3024L42.9018 18.4584L32.4203 33.4462C31.5818 34.6452 31.9809 36.0371 33.3274 36.6095C34.6739 37.182 36.3907 36.6897 37.2292 35.4907L49.2081 18.3619C50.0466 17.1629 49.6475 15.771 48.301 15.1985L29.0654 7.02023C27.7189 6.44775 26.0021 6.94003 25.1636 8.13904C24.3251 9.33807 24.7242 10.7299 26.0707 11.3024Z" fill-rule="evenodd" fill="#000000"/>
	<path d="M44 80.0772C26.3269 80.0772 12 65.7504 12 48.0772L18 48.0772C18 55.2569 20.5384 61.3852 25.6152 66.462C30.692 71.5388 36.8203 74.0772 44 74.0772C51.1797 74.0772 57.308 71.5388 62.3848 66.462C67.4616 61.3852 70 55.2569 70 48.0772L76 48.0772C76 65.7504 61.6731 80.0772 44 80.0772Z" fill-rule="evenodd" fill="#000000"/>
	<path d="M44 16.0773C26.3269 16.0773 12 30.4042 12 48.0773L18 48.0773C18 40.8976 20.5384 34.7693 25.6152 29.6925C30.692 24.6157 36.8203 22.0773 44 22.0773L44 16.0773Z" fill-rule="evenodd" fill="#000000"/>
	<defs/>
</svg>
