<svg width="88.000000" height="88.000000" viewBox="0 0 88 88" fill="none" xmlns="http://www.w3.org/2000/svg" xmlns:xlink="http://www.w3.org/1999/xlink">
	<desc>
			Created with Pixso.
	</desc>
	<path d="M72.8221 76.0632L54.8221 57.0632L59.1779 52.9368L77.1779 71.9368L72.8221 76.0632Z" fill-rule="evenodd" fill="#000000"/>
	<path d="M39.5 10C24.3122 10 12 22.536 12 38L17.1562 38C17.1562 31.7178 19.3377 26.3555 23.7006 21.9133C28.0635 17.4711 33.3299 15.25 39.5 15.25C45.6701 15.25 50.9365 17.4711 55.2994 21.9133C59.6623 26.3555 61.8438 31.7178 61.8438 38L67 38C67 22.536 54.6878 10 39.5 10Z" fill-rule="evenodd" fill="#000000"/>
	<path d="M39.5 65.5C24.3122 65.5 12 53.1878 12 38L17.1562 38C17.1562 44.1701 19.3377 49.4365 23.7006 53.7994C28.0635 58.1623 33.3299 60.3438 39.5 60.3438C45.6701 60.3438 50.9365 58.1623 55.2994 53.7994C59.6623 49.4365 61.8438 44.1701 61.8438 38L67 38C67 53.1878 54.6878 65.5 39.5 65.5Z" fill-rule="evenodd" fill="#000000"/>
	<defs/>
</svg>
