<svg width="88.000000" height="88.000000" viewBox="0 0 88 88" fill="none" xmlns="http://www.w3.org/2000/svg" xmlns:xlink="http://www.w3.org/1999/xlink">
	<desc>
			Created with Pixso.
	</desc>
	<path d="M44 11C26.3269 11 12 25.3269 12 43L18 43C18 35.8203 20.5384 29.692 25.6152 24.6152C30.692 19.5384 36.8203 17 44 17C51.1797 17 57.308 19.5384 62.3848 24.6152C67.4616 29.692 70 35.8203 70 43L76 43C76 25.3269 61.6731 11 44 11Z" fill-rule="evenodd" fill="#000000"/>
	<path d="M44 75C26.3269 75 12 60.6731 12 43L18 43C18 50.1797 20.5384 56.308 25.6152 61.3848C30.692 66.4616 36.8203 69 44 69C51.1797 69 57.308 66.4616 62.3848 61.3848C67.4616 56.308 70 50.1797 70 43L76 43C76 60.6731 61.6731 75 44 75Z" fill-rule="evenodd" fill="#000000"/>
	<path d="M26 41L62 41L62 47L26 47L26 41Z" fill-rule="evenodd" fill="#000000"/>
	<defs/>
</svg>
