<svg width="88.000000" height="88.000000" viewBox="0 0 88 88" fill="none" xmlns="http://www.w3.org/2000/svg" xmlns:xlink="http://www.w3.org/1999/xlink">
	<desc>
			Created with Pixso.
	</desc>
	<path d="M12 44L12 44C12 61.6731 26.3269 76 44 76C61.6731 76 76 61.6731 76 44L59.6075 44L37.054 65.1865L32.981 60.8507L32.7885 61.0272L21.7885 49.0272L26.2115 44.9728L37.1295 56.8834L50.8442 44L12 44Z" clip-rule="evenodd" fill-rule="evenodd" fill="#000000" fill-opacity="1.000000"/>
	<path d="M44 12C26.3269 12 12 26.3269 12 44L50.8442 44L65.946 29.8135L70.054 34.1866L59.6074 44L76 44C76 26.3269 61.6731 12 44 12Z" clip-rule="evenodd" fill-rule="evenodd" fill="#000000" fill-opacity="1.000000"/>
	<defs/>
</svg>
