<svg width="89.595917" height="89.000000" viewBox="0 0 89.5959 89" fill="none" xmlns="http://www.w3.org/2000/svg" xmlns:xlink="http://www.w3.org/1999/xlink">
	<desc>
			Created with Pixso.
	</desc>
	<path d="M12.4134 69.469L16.8483 51.7256L33.2912 59.7335C34.6066 60.3741 35.9189 59.7621 36.2737 58.3427C36.6285 56.9232 35.8737 55.3046 34.5583 54.6639L15.7664 45.5121C14.451 44.8715 13.1387 45.4834 12.7839 46.9029L7.71542 67.181C7.36063 68.6005 8.11542 70.2191 9.43085 70.8598C10.7463 71.5004 12.0586 70.8884 12.4134 69.469Z" fill-rule="evenodd" fill="#000000"/>
	<path d="M14.0433 51.7604C17.5102 65.6857 30.0986 76.0041 45.0969 76.004C62.77 76.004 77.0969 61.6771 77.0969 44.004L71.0969 44.004C71.0969 51.1837 68.5585 57.312 63.4817 62.3888C58.4048 67.4656 52.2766 70.004 45.0969 70.0041C37.9172 70.0041 31.7889 67.4657 26.7121 62.3889C23.1682 58.845 20.8613 54.7888 19.7912 50.2203L14.0433 51.7604Z" fill-rule="evenodd" fill="#000000"/>
	<path d="M78.1826 16.6853L73.7477 34.4286L57.3048 26.4208C55.9894 25.7802 54.677 26.3921 54.3223 27.8116C53.9674 29.231 54.7222 30.8497 56.0377 31.4903L74.8295 40.6422C76.145 41.2828 77.4573 40.6708 77.8121 39.2514L82.8806 18.9733C83.2353 17.5538 82.4805 15.9352 81.1651 15.2945C79.8497 14.6539 78.5374 15.2658 78.1826 16.6853Z" fill-rule="evenodd" fill="#000000"/>
	<path d="M76.5526 34.3938C73.0857 20.4686 60.4974 10.1502 45.499 10.1502C27.8259 10.1502 13.4991 24.4771 13.4991 42.1502L19.4991 42.1502C19.4991 34.9705 22.0375 28.8422 27.1143 23.7654C32.1911 18.6886 38.3194 16.1502 45.4991 16.1502C52.6787 16.1502 58.807 18.6886 63.8838 23.7654C67.4277 27.3093 69.7346 31.3654 70.8047 35.934L76.5526 34.3938Z" fill-rule="evenodd" fill="#000000"/>
	<defs/>
</svg>
